<?xml version="1.0" encoding="utf-8"?>
<!-- Generator: Adobe Illustrator 26.5.1, SVG Export Plug-In . SVG Version: 6.00 Build 0)  -->
<svg version="1.1" id="Layer_1" xmlns="http://www.w3.org/2000/svg" xmlns:xlink="http://www.w3.org/1999/xlink" x="0px" y="0px"
	 viewBox="0 0 2000 2000" style="enable-background:new 0 0 2000 2000;" xml:space="preserve">
<style type="text/css">
	.st0{fill:#232323;}
	.st1{fill:#EAEAE8;}
	.st2{fill:#1B1C1C;}
	.st3{fill:#FFD115;}
</style>
<rect x="1.22" y="-1.16" width="2002.65" height="2004.58"/>
<g>
	<path class="st0" d="M1041.56,641.37c14.48-20.53,33.44-46.28,54.55-59.67c18.21-11.73,40.41-15.58,61.5-10.66
		c39.34,8.84,67.18,47.39,90.94,78.06c14.35,18.53,10.39,49.62,5.06,71.43c12.5,2.39,19.83,5.87,30.84,11.98
		c8.9,7.19,14.6,12.45,21.85,21.34c16.66,20.19,36.47,36.78,37.07,63.34c17.81,2.49,28.52,4.5,42.14,17.82
		c28.91-17.73,54.53-32.29,89.62-24c27.88,6.59,45.13,24.38,62.06,46.41c12.72,16.55,24.26,30,28.14,51.16
		c24.58,8.44,45.59,33.02,56.72,55.79c8.25-0.87,8.69,4.68,14.59,8.12c3.19-0.6,1.62-0.72,4.82,0.67c0.77,1.14,2.29,3.22,2.82,4.36
		l-1.33,1.8c36,59.56-48.06,136.6-92.17,168.28c4.4,11.75,5.59,19.05,0.07,31.2c-0.45,0.99-0.91,1.98-1.38,2.96
		c1.19,2.22,5.04,9.81,6.39,11.28c5.13,21.09-6.52,43.93-28.2,45.24c-27.25,1.64-72.59,11.19-98.31,6.88
		c-13.67,7.62-41,12.87-55.17,4.15c-16.42,10.08-52.83,14.4-71.44,11.97c-20.68,48.33-35.05,113.77-89.54,134.88
		c-42,16.27-64.26-4.98-94.05-31.65c-8.15-7.82-14.01-14.83-20.61-24c-7.55-14.36-8.16-21.16-9.35-37.48
		c-39.74,9.65-80.85,16.07-120.66,26.2c-40.24,10.24-79.9,21.76-119.63,33.36c-29.61,8-41.28-4.69-61.9-18.72
		c-45.55-30.98-78.56-86.7-18.6-128.49c-16.96-14.51-22.72-17.96-34.84-36.74c-12.62-23.97-15.73-35.56-15.93-62.21
		c0.57-12.24,5.26-32.79,8.34-44.84c-10.87,2.3-21.59,5.26-32.09,8.87c-9.31,27.49-22.85,61.38-33.17,89.29l-46.88,123.61
		c-11.62,30.96-28.35,89.69-52.5,110.16c-23.34,19.72-73.4,38.35-103.05,25.52c-19.77-8.56-67.03-54.23-75.34-73.93
		c-4.38-10.53-5.51-22.13-3.26-33.3c2.43-12.44,20.6-53.75,26.11-67.15l57.32-139.92c-16.43-9.69-42.88-36.74-51.24-54.07
		c-8.43-17.57-9.58-37.76-3.19-56.17c11.84-33.25,34.8-38.57,62-51.41c-9.61,0.51-17.9,1.08-27.49-2.02
		c-24.83-8.7-56.38-37.66-72.02-58.73c-45.87-61.8,6.18-126.94,54.43-161.9c131.66-95.39,298.68-119.65,456.09-137.65
		c31.38-3.59,64.25-6.28,95.49-5.52C1007.03,589.57,1025.6,620.1,1041.56,641.37z"/>
	<path d="M1622.04,964.37c8.25-0.87,8.69,4.68,14.59,8.12c3.19-0.6,1.62-0.72,4.82,0.67c0.77,1.14,2.29,3.22,2.82,4.36l-1.33,1.8
		c36,59.56-48.06,136.6-92.17,168.28c-15.02-21.81-30.08-20.02-53.84-18.04c47.73-22.83,94.81-66.54,119.19-113.6
		C1625.37,998.13,1628.29,983.63,1622.04,964.37z"/>
	<path class="st1" d="M1131.9,604.93c11.42-1.09,21.53,0.29,31.8,5.88c12.48,6.85,21.56,18.59,25.05,32.39
		c17.98,70.17-82.91,227.55-123.24,283.71c-12.97,18.03-26.26,35.83-39.87,53.39c-6.97,9.05-15.09,17.68-20.83,27.56
		c-9.61,16.52-21.48,62.88-16.11,81.56c1.14,3.98,3.33,8.13,7.32,9.85c21.45,9.25,99.75-77.91,111.69-96.73
		c8.37-13.18,14.4-28.56,21.05-42.69c8.58-18.27,17.6-36.33,27.06-54.17c6.32-12.12,17.29-37.63,32.74-38.91
		c19.05-1.58,44.54,9.88,50.44,29.24c-4.61,14.25-15.69,28.94-21.75,41.57c-10.03,20.89-66.86,120.52-56.11,137.41
		c8.8,4.37,22.56-9.41,29.25-14.67c54.38-42.72,89.88-105.59,106.76-171.88c1.56-6.15-0.41-15.03-1.75-21.14
		c15.82-21.51,56.37-23.82,70.17,2.27c5.83,11.02-7.6,38.17-13.18,50.3c23.45-29.7,51.74-61.63,88.89-73.56
		c29.47-9.46,58.6,11.25,65.47,39.97c11.47,47.86-18.33,97.58-41.66,137.23c38.27-25.33,59.83-47.96,88.37-83.43
		c5.76,1.92,17.89,6.48,15.5,14.1c-6.58,20.93-33.31,50.94-49.56,65.81c-48.95,44.75-114.66,92.74-182.52,97.71
		c-19.51,0.8-37.55-11.55-50.24-24.84c-1.45,1.33-9.11,20.32-10.39,23.47c-26.37,65.12-51.46,131.11-76.41,196.74
		c-8.44,20.5-38.94,28.76-57.91,20.47c-18.42-8.05-18.4-33.09-12.19-49.09c28.5-73.36,66.01-145.35,98.29-216.97
		c-25.72,23.22-61.36,69.77-100.67,65.98c-10.28-1.01-19.68-6.27-25.9-14.51c-10.8-14.33-10.58-34.08-7.84-50.91
		c-2.96,3.76-6.06,7.41-9.3,10.93c-28.94,31.54-96.04,107.53-143.84,62.75c-15.44-14.48-17.56-36.53-17.7-56.72
		c-28.35,32.12-71.22,87.71-116.13,92.53c-11.41,1.22-22.73-1.71-31.59-9.14c-11.88-9.95-17.86-24.48-18.98-39.63
		c-3.62-48.92,37.09-136.04,57.71-181.79c6.63-14.71,13.48-35.4,24.3-47.46c5.19-5.78,11.58-9.02,19.39-9.25
		c12.72-0.37,27.47,6.26,36.61,14.89c3.56,3.36,8.99,10.33,8.98,15.52c-0.04,10.02-15.75,35.83-20.8,46.2
		c-12.75,26.18-55.14,115.56-53.4,141.18c0.23,3.41,0.91,5.63,3.51,7.98c2.18,0.69,3.74,0.99,5.99,0.3
		c16.08-4.9,83.24-73.94,91.49-90.57c4.18-8.44,5.78-19.35,8.2-28.52c5.22-19.81,10.17-39.75,16.5-59.24
		c28.25-86.94,63.1-183.24,109.06-262.35C1079.27,648.69,1099.75,613.44,1131.9,604.93z"/>
	<path class="st2" d="M1428.47,897.08c42.06,6.52-50.33,175.96-114.35,168.58c-6.7-2.91-7.52-3.71-13.15-8.12
		C1317.5,1015.32,1383.58,907.61,1428.47,897.08z"/>
	<path class="st2" d="M1146.65,665.94c3.22,2.98,1.14,17.77,0.05,21.94c-21.3,80.76-70.82,171.85-118.96,239.58l-0.48,0.24
		l-0.35-1.29c17.63-48.53,36.84-96.48,57.6-143.76C1099.96,747.27,1122.76,695,1146.65,665.94z"/>
	<path class="st1" d="M697.38,744.9c11.25-0.79,29.28,2.62,32.55,14.3c2.97,10.59-11.03,36.33-15.42,45.86l-21.38,47.06
		c-13.47,29.82-25.58,60.79-38.91,90.07c15.58-4.54,98.39-21.1,110.82-15.93c3.38,1.4,5.92,4.29,7.13,7.72
		c3.18,9.01-4.25,29.28-8.3,37.91c-1.94,4.14-4.64,8.34-8.87,10.43c-11.81,5.83-30.07,6.82-43.04,9.26
		c-27.97,5.24-58.37,10.44-85.22,20.06l-1.11,0.41c-25.61,68.52-50.86,137.18-75.75,205.96c-9.13,25.95-18.44,51.82-27.91,77.65
		c-13.92,38.83-14.08,58.35-60.48,67.26c-26.37,2.16-53.37-12.23-43.61-42.49c4.02-12.46,9.68-24.6,14.66-36.76
		c9.91-24.54,20.04-49,30.4-73.35c25.09-58.72,49.13-117.34,74.91-175.92c-21.61,7.39-41.74,15.05-62.42,24.8
		c-5.42,2.45-11.1,2.97-16.56,0.1c-17.95-9.34-21.99-31.39-13.47-48.65c7.02-14.23,26.27-19.05,40.07-24.58
		c26.66-10.69,54.35-19.16,81.55-28.37c7.44-12.51,18.66-39.61,24.85-53.55l41.79-93.91c6.98-15.76,17.24-41.09,27.68-54.74
		C667.79,747.03,687.15,745.63,697.38,744.9z"/>
	<path class="st1" d="M958.66,620.75c23.68-2.23,36.16,11.14,35.75,34.32c-0.91,51.48-40.28,43.83-75.29,45.39
		c-13.26,0.61-26.5,1.47-39.73,2.55c-118.83,9.59-248.51,31.4-353.01,92.51c-22.05,13.88-52.85,33.73-67.55,55.14
		c-8.36,12.17-0.57,37.7-30.64,35.39c-20.51-5.33-37.65-24.12-38.61-45.17c-1.89-41.7,50.91-80.31,82.02-99.2
		C612.49,656.2,797.54,633.06,958.66,620.75z"/>
	<path class="st3" d="M1123.93,1179.82c2.34-0.4,9.71-0.59,12.43-0.73c-5.64,15.27-14.13,30.99-19.08,45.63
		c-61.02,7.46-144.73,24.82-205.03,41.33c-20.07,5.6-40.07,11.44-60,17.52c-19.93,6.16-42.68,16.69-63.07,10.88
		c-1.63-0.9-3.3-1.83-4.85-2.85c-6.34-4.11-10.62-10.72-11.78-18.19c-1.12-7.32,0.91-14.77,5.59-20.52
		C804.78,1220.39,1070.18,1185.12,1123.93,1179.82z"/>
	<path d="M566.9,874.77c-0.08,4.06-18.04,44.13-21.31,52.14c-19.97,6.1-39.63,13.16-58.92,21.15l0.14-2.12
		c13.89-10.94,24.86-21.97,37.85-33.91C538.55,899.41,552.63,886.98,566.9,874.77z"/>
	<circle class="st1" cx="904.37" cy="828.47" r="42.8"/>
	<circle class="st1" cx="1240.92" cy="804.48" r="42.8"/>
	<g>
		<path class="st3" d="M1321.57,1163.25l4.55,68.44l-17.64,1l-2.35-34.11l-1.41-17.44l1.04-2.28l-1.27-1.15l-0.08-1.14l-0.64-12.14
			L1321.57,1163.25z M1306.94,1166.22l-2.09,1.75l2.3,1.97l1.79-1.14l-1.52-1.68l1.38-0.3L1306.94,1166.22z M1319.23,1223.32
			l-1.4,1.96l1.61,1.76l1.79-1.14l-1.52-1.68l1.38-0.3L1319.23,1223.32z M1322.81,1228.01l-1.49,1.29l1.62,1.42l1.27-0.81
			l-1.06-1.25l0.97-0.19L1322.81,1228.01z"/>
		<path class="st3" d="M1364.55,1160.4l0.91,13.7l-10.57,0.7l1.82,27.35l0.91,13.7l0.45,6.85l-2.31,2.28l2.37-0.16l0.4,4.73
			l-17.79,1.18l-3.64-54.74l-10.53,0.7l-0.91-13.7l9.72-0.65l4.86-0.32l1.91,1.36l1.72-1.6l1.22-0.08l9.72-0.65l4.86-0.32l1.74,1.37
			l1.89-1.61L1364.55,1160.4z M1339.99,1186.95l1.24,18.6l1.15,17.25l0.31,4.73l2.25-1.85l-1.71-5.32l0.74-4.13l-1.31-4.33
			l0.68-5.14l-0.34-5.07l-1.26-3.65l0.84-7.87C1341.31,1188,1340.44,1186.92,1339.99,1186.95z M1349.49,1176.47l-1.15,3.13
			l2.19,2.23l1.17-2.8l-1.22-2.98L1349.49,1176.47z"/>
		<path class="st3" d="M1378.04,1159.5l0.41,6.13c0.21,3.18,0,5.84-0.62,7.96c-0.62,2.12-1.83,3.96-3.6,5.5
			c-1.78,1.55-3.84,2.65-6.17,3.32l-0.33-4.95c1.63-1.04,2.5-2.37,2.62-4l-2.87,0.19l-0.89-13.4L1378.04,1159.5z"/>
		<path class="st3" d="M1421.89,1177.27l-6.62,0.1l-5.22,0.64l-4.06,0.31l-0.29-2.44l1.22-1.35l-1.48-0.5l-0.08-0.63
			c-0.16-2.37-0.47-3.86-0.94-4.48c-0.47-0.62-1.19-0.9-2.18-0.83c-1.07,0.07-1.85,0.56-2.34,1.47c-0.49,0.91-0.68,2.25-0.56,4.03
			c0.15,2.28,0.58,3.98,1.27,5.1c0.67,1.12,2.55,2.46,5.66,4.04l5.48,3.2l3.49,1.34l0.13,1.99l2.11-0.86
			c0.53,0.28,1.92,1.85,4.18,4.73c2.26,2.88,3.61,7.67,4.06,14.38c0.32,4.88-0.01,8.51-1,10.89c-0.99,2.39-3.07,4.47-6.23,6.25
			c-3.17,1.78-6.92,2.81-11.26,3.1c-4.76,0.32-8.89-0.32-12.38-1.9c-3.48-1.58-5.84-3.73-7.07-6.45s-2.02-6.65-2.36-11.77
			l-0.21-4.49l8.2-0.54l4.1-0.27l0.81,1.31l1.69-0.11l0.59-1.4l1.06-0.07l0.55,8.33c0.17,2.56,0.51,4.2,1.02,4.9
			c0.52,0.7,1.36,1.01,2.55,0.93c1.18-0.08,2.03-0.6,2.55-1.57c0.51-0.97,0.71-2.37,0.59-4.2c-0.27-4.03-1-6.63-2.18-7.8
			c-1.21-1.17-4.12-3.05-8.74-5.66c-4.62-2.64-7.69-4.57-9.22-5.8c-1.53-1.23-2.84-2.98-3.94-5.26c-1.1-2.28-1.77-5.23-2.01-8.87
			c-0.35-5.24,0.06-9.12,1.24-11.63c1.17-2.51,3.21-4.55,6.11-6.12c2.9-1.56,6.46-2.49,10.69-2.77c4.62-0.31,8.61,0.18,11.96,1.46
			c3.36,1.28,5.64,3.02,6.85,5.21c1.2,2.2,1.99,6.02,2.35,11.46L1421.89,1177.27z M1388.56,1204.79l-2.25,1.93l2.48,2.13l1.91-1.23
			l-1.61-1.85l1.46-0.31L1388.56,1204.79z M1393.12,1203.63l-1.49,1.29l1.62,1.42l1.27-0.81l-1.23-1.23l1.14-0.2L1393.12,1203.63z
			 M1396.84,1205.42l-1.2,1.1l1.29,0.81l1.09-0.24l-0.63-1.1l0.54-0.16L1396.84,1205.42z M1409.02,1174.55l-1.49,1.29l1.62,1.42
			l0.76-1.41l-0.55-0.64l0.97-0.19L1409.02,1174.55z M1421.33,1214.16l-1.49,1.29l1.62,1.42l1.27-0.81l-1.06-1.25l0.97-0.19
			L1421.33,1214.16z M1421.89,1217.52l-1.49,1.29l1.62,1.42l1.27-0.81l-1.06-1.25l0.97-0.19L1421.89,1217.52z M1424,1211.6
			l-1.13,0.88l1.21,0.98l0.98-0.57l-0.82-0.84l0.75-0.18L1424,1211.6z"/>
		<path class="st3" d="M1497.98,1151.66l2.31,34.15l1.17,17.08l0.57,8.54l0.28,4.27l-10.64,2.11l10.28-1.19l0.69,3.35l-15.56,1.03
			l-3.07-46.2l-3.15,46.62l-11.03,0.73l-9.55-44.71l3,45.15l-15.56,1.03l-4.55-68.44l23.04-1.53c0.95,4.07,1.99,8.87,3.12,14.4
			l3.61,17.25l1.93-32.23L1497.98,1151.66z M1447.29,1158.25l-0.37,0.79l0.53,1.58l1.39-0.81l-1.49-0.71l1.78-0.67L1447.29,1158.25z
			 M1449.99,1156.72l-0.77,1.16l0.7,0.85l0.58-0.85l0.81-0.05l-0.02-0.85L1449.99,1156.72z M1497.8,1210.43l-1.29,1.7l1.14,1.2
			l2.7,0.29l-0.06-1.48l-0.1-0.93L1497.8,1210.43z"/>
		<path class="st3" d="M1505.4,1151l14.76-0.98l8.24-0.55l2.6,0.85l2.05-1.16l1.86-0.08l0.91,13.7l-11.88,0.79l0.86,12.98
			l11.11-0.74l0.87,13.02l-11.11,0.74l0.93,14.71l6.61-0.27l1.66,1.93l1.56-2.06l1.07,0.69l2.24-0.83l0.91,13.7l-30.86,2.05
			l-2.19-34.25l-1.22-17.16l-0.41-4.3l1.21-1.52l-1.25-1.62l0.01-1.06l-0.28-4.27l-0.14-2.16L1505.4,1151z M1508.53,1163.61
			l-0.14,1.67l0.17,1.9l2.64,0.08l0.75-1.54l-0.95-1.47L1508.53,1163.61z M1520.34,1185.92l-0.15,0.94l0.12,1.05l2.12-0.01
			l0.62-0.85l-0.73-0.8L1520.34,1185.92z M1523.26,1190.95l-0.1,0.43l0.07,0.46l1.23,0l0.4-0.41l-0.45-0.35L1523.26,1190.95z
			 M1529.15,1208.61l-0.15,0.94l0.12,1.05l2.12-0.01l0.62-0.85l-0.73-0.8L1529.15,1208.61z M1530.26,1215.16l-0.15,0.94l0.12,1.05
			l2.12-0.01l0.62-0.85l-0.73-0.8L1530.26,1215.16z M1533.76,1209.66l-0.21,1.33l-0.15,0.99l3.36,0.75l0.8-1.45l-1.06-1.16
			L1533.76,1209.66z M1536.14,1214.09l-0.15,0.94l0.12,1.05l2.12-0.01l0.62-0.85l-0.73-0.8L1536.14,1214.09z"/>
	</g>
</g>
</svg>
