<?xml version="1.0" encoding="UTF-8"?>
<svg id="Layer_1" xmlns="http://www.w3.org/2000/svg" version="1.1" xmlns:xlink="http://www.w3.org/1999/xlink" viewBox="0 0 2000 1333.2">
  <!-- Generator: Adobe Illustrator 29.3.1, SVG Export Plug-In . SVG Version: 2.1.0 Build 151)  -->
  <defs>
    <style>
      .st0 {
        fill: #ffd115;
      }

      .st1 {
        fill: #1b1c1c;
      }

      .st2 {
        fill: #232323;
      }

      .st3 {
        fill: #eaeae8;
      }
    </style>
  </defs>
  <path class="st2" d="M1059.6,174.9c21.2-30,48.9-67.7,79.8-87.3,26.6-17.2,59.1-22.8,90-15.6,57.5,12.9,98.3,69.3,133,114.2,21,27.1,15.2,72.6,7.4,104.5,18.3,3.5,29,8.6,45.1,17.5,13,10.5,21.4,18.2,32,31.2,24.4,29.5,53.3,53.8,54.2,92.6,26,3.6,41.7,6.6,61.6,26.1,42.3-25.9,79.8-47.2,131.1-35.1,40.8,9.6,66,35.7,90.8,67.9,18.6,24.2,35.5,43.9,41.2,74.8,36,12.3,66.7,48.3,83,81.6,12.1-1.3,12.7,6.8,21.3,11.9,5.6,6.6,0,0,4.7,5.4,1.1,1.7,1.5.9,2.3,2.6l2.2,2.1c52.7,87.1-70.3,199.8-134.8,246.1,6.4,17.2,8.2,27.9.1,45.6-.7,1.4-1.3,2.9-2,4.3,1.7,3.2,7.4,14.3,9.3,16.5,7.5,30.8-9.5,64.3-41.2,66.2-39.9,2.4-106.2,16.4-143.8,10.1-20,11.1-60,18.8-80.7,6.1-24,14.7-77.3,21.1-104.5,17.5-30.2,70.7-51.3,166.4-131,197.3-61.4,23.8-94-7.3-137.6-46.3-11.9-11.4-20.5-21.7-30.1-35.1-11-21-11.9-30.9-13.7-54.8-58.1,14.1-118.3,23.5-176.5,38.3-58.9,15-116.9,31.8-175,48.8-43.3,11.7-60.4-6.9-90.5-27.4-66.6-45.3-114.9-126.8-27.2-187.9-24.8-21.2-33.2-26.3-51-53.7-18.5-35.1-23-52-23.3-91,.8-17.9,7.7-48,12.2-65.6-15.9,3.4-31.6,7.7-46.9,13-13.6,40.2-33.4,89.8-48.5,130.6l-68.6,180.8c-17,45.3-41.5,131.2-76.8,161.1-34.1,28.8-107.4,56.1-150.7,37.3-28.9-12.5-98-79.3-110.2-108.1-6.4-15.4-8.1-32.4-4.8-48.7,3.6-18.2,30.1-78.6,38.2-98.2l83.8-204.7c-24-14.2-62.7-53.7-74.9-79.1-12.3-25.7-14-55.2-4.7-82.2,17.3-48.6,50.9-56.4,90.7-75.2-14.1.7-26.2,1.6-40.2-3-36.3-12.7-82.5-55.1-105.3-85.9-67.1-90.4,9-185.7,79.6-236.8,192.6-139.5,436.9-175,667.1-201.3,45.9-5.3,94-9.2,139.7-8.1,43.7,3.4,70.8,48,94.2,79.1Z"/>
  <path class="st3" d="M1191.7,121.6c16.7-1.6,31.5.4,46.5,8.6,18.3,10,31.5,27.2,36.6,47.4,26.3,102.6-121.3,332.8-180.3,415-19,26.4-38.4,52.4-58.3,78.1-10.2,13.2-22.1,25.9-30.5,40.3-14.1,24.2-31.4,92-23.6,119.3,1.7,5.8,4.9,11.9,10.7,14.4,31.4,13.5,145.9-114,163.4-141.5,12.2-19.3,21.1-41.8,30.8-62.4,12.5-26.7,25.7-53.1,39.6-79.2,9.2-17.7,25.3-55,47.9-56.9,27.9-2.3,65.1,14.5,73.8,42.8-6.7,20.8-22.9,42.3-31.8,60.8-14.7,30.6-97.8,176.3-82.1,201,12.9,6.4,33-13.8,42.8-21.5,79.5-62.5,131.5-154.4,156.2-251.4,2.3-9-.6-22-2.6-30.9,23.1-31.5,82.4-34.8,102.6,3.3,8.5,16.1-11.1,55.8-19.3,73.6,34.3-43.4,75.7-90.1,130-107.6,43.1-13.8,85.7,16.5,95.8,58.5,16.8,70-26.8,142.7-60.9,200.7,56-37,87.5-70.1,129.3-122,8.4,2.8,26.2,9.5,22.7,20.6-9.6,30.6-48.7,74.5-72.5,96.3-71.6,65.5-167.7,135.6-267,142.9-28.5,1.2-54.9-16.9-73.5-36.3-2.1,1.9-13.3,29.7-15.2,34.3-38.6,95.2-75.3,191.8-111.8,287.8-12.3,30-57,42.1-84.7,29.9-26.9-11.8-26.9-48.4-17.8-71.8,41.7-107.3,96.5-212.6,143.8-317.3-37.6,34-89.7,102-147.2,96.5-15-1.5-28.8-9.2-37.9-21.2-15.8-21-15.5-49.8-11.5-74.5-4.3,5.5-8.9,10.8-13.6,16-42.3,46.1-140.5,157.3-210.4,91.8-22.6-21.2-25.7-53.4-25.9-83-41.5,47-104.2,128.3-169.9,135.3-16.7,1.8-33.2-2.5-46.2-13.4-17.4-14.6-26.1-35.8-27.8-58-5.3-71.6,54.2-199,84.4-265.9,9.7-21.5,19.7-51.8,35.5-69.4,7.6-8.5,16.9-13.2,28.4-13.5,18.6-.5,40.2,9.2,53.5,21.8,5.2,4.9,13.1,15.1,13.1,22.7,0,14.7-23,52.4-30.4,67.6-18.6,38.3-80.6,169-78.1,206.5.3,5,1.3,8.2,5.1,11.7,3.2,1,5.5,1.4,8.8.4,23.5-7.2,121.8-108.1,133.8-132.5,6.1-12.3,8.5-28.3,12-41.7,7.6-29,14.9-58.1,24.1-86.6,41.3-127.2,92.3-268,159.5-383.7,22.9-39.4,52.8-91,99.9-103.4Z"/>
  <path class="st1" d="M1625.5,549c61.5,9.5-73.6,257.4-167.3,246.6-9.8-4.3-11-5.4-19.2-11.9,24.2-61.8,120.8-219.3,186.5-234.7Z"/>
  <path class="st1" d="M1213.3,210.9c4.7,4.4,1.7,26,0,32.1-31.2,118.1-103.6,251.4-174,350.4l-.7.4-.5-1.9c25.8-71,53.9-141.1,84.2-210.3,22.6-51.7,55.9-128.2,90.9-170.7Z"/>
  <path class="st3" d="M556.2,326.4c16.5-1.2,42.8,3.8,47.6,20.9,4.3,15.5-16.1,53.1-22.6,67.1l-31.3,68.8c-19.7,43.6-37.4,88.9-56.9,131.7,22.8-6.6,143.9-30.9,162.1-23.3,4.9,2,8.7,6.3,10.4,11.3,4.7,13.2-6.2,42.8-12.1,55.4-2.8,6.1-6.8,12.2-13,15.3-17.3,8.5-44,10-63,13.5-40.9,7.7-85.4,15.3-124.6,29.3l-1.6.6c-37.5,100.2-74.4,200.6-110.8,301.2-13.4,38-27,75.8-40.8,113.6-20.4,56.8-20.6,85.3-88.5,98.4-38.6,3.2-78.1-17.9-63.8-62.1,5.9-18.2,14.2-36,21.4-53.8,14.5-35.9,29.3-71.7,44.5-107.3,36.7-85.9,71.9-171.6,109.6-257.3-31.6,10.8-61.1,22-91.3,36.3-7.9,3.6-16.2,4.3-24.2.1-26.3-13.7-32.2-45.9-19.7-71.2,10.3-20.8,38.4-27.9,58.6-36,39-15.6,79.5-28,119.3-41.5,10.9-18.3,27.3-57.9,36.3-78.3l61.1-137.4c10.2-23.1,25.2-60.1,40.5-80.1,9.4-12.4,37.8-14.4,52.7-15.5Z"/>
  <path class="st3" d="M938.4,144.8c34.6-3.3,52.9,16.3,52.3,50.2-1.3,75.3-58.9,64.1-110.1,66.4-19.4.9-38.8,2.2-58.1,3.7-173.8,14-363.5,45.9-516.3,135.3-32.3,20.3-77.3,49.3-98.8,80.6-12.2,17.8-.8,55.1-44.8,51.8-30-7.8-55.1-35.3-56.5-66.1-2.8-61,74.5-117.5,120-145.1,206.1-125,476.7-158.9,712.4-176.9Z"/>
  <path class="st0" d="M1180.1,962.5c3.4-.6,14.2-.9,18.2-1.1-8.2,22.3-20.7,45.3-27.9,66.7-89.3,10.9-211.7,36.3-299.9,60.5-29.4,8.2-58.6,16.7-87.8,25.6-29.2,9-62.4,24.4-92.2,15.9-2.4-1.3-4.8-2.7-7.1-4.2-9.3-6-15.5-15.7-17.2-26.6-1.6-10.7,1.3-21.6,8.2-30,39-47.5,427.1-99.1,505.8-106.9Z"/>
  <circle class="st3" cx="858.9" cy="448.6" r="62.6"/>
  <circle class="st3" cx="1351.2" cy="413.5" r="62.6"/>
  <g>
    <path class="st0" d="M1469.2,938.3l6.7,100.1-25.8,1.5-3.4-49.9-2.1-25.5,1.5-3.3-1.9-1.7v-1.7c-.1,0-1.1-17.8-1.1-17.8l26-1.7ZM1447.8,942.6l-3.1,2.6,3.4,2.9,2.6-1.7-2.2-2.5,2-.4-2.7-.9ZM1465.7,1026.1l-2,2.9,2.4,2.6,2.6-1.7-2.2-2.5,2-.4-2.7-.9ZM1471,1033l-2.2,1.9,2.4,2.1,1.9-1.2-1.6-1.8,1.4-.3-1.9-.7Z"/>
    <path class="st0" d="M1532,934.1l1.3,20-15.5,1,2.7,40,1.3,20,.7,10-3.4,3.3,3.5-.2.6,6.9-26,1.7-5.3-80.1-15.4,1-1.3-20,14.2-1,7.1-.5,2.8,2,2.5-2.3h1.8c0-.1,14.2-1.1,14.2-1.1l7.1-.5,2.5,2,2.8-2.4h1.8ZM1496.1,972.9l1.8,27.2,1.7,25.2.5,6.9,3.3-2.7-2.5-7.8,1.1-6-1.9-6.3,1-7.5-.5-7.4-1.8-5.3,1.2-11.5c-1.9-3.2-3.1-4.8-3.8-4.7ZM1510,957.6l-1.7,4.6,3.2,3.3,1.7-4.1-1.8-4.4-1.4.6Z"/>
    <path class="st0" d="M1551.8,932.8l.6,9c.3,4.7,0,8.5-.9,11.6s-2.7,5.8-5.3,8c-2.6,2.3-5.6,3.9-9,4.9l-.5-7.2c2.4-1.5,3.7-3.5,3.8-5.9l-4.2.3-1.3-19.6,16.7-1.1Z"/>
    <path class="st0" d="M1615.9,958.8h-9.7c0,.1-7.6,1.1-7.6,1.1l-5.9.5-.4-3.6,1.8-2-2.2-.7v-.9c-.4-3.5-.8-5.6-1.5-6.6s-1.7-1.3-3.2-1.2c-1.6.1-2.7.8-3.4,2.2-.7,1.3-1,3.3-.8,5.9.2,3.3.8,5.8,1.9,7.5,1,1.6,3.7,3.6,8.3,5.9l8,4.7,5.1,2,.2,2.9,3.1-1.3c.8.4,2.8,2.7,6.1,6.9s5.3,11.2,5.9,21c.5,7.1,0,12.4-1.5,15.9-1.4,3.5-4.5,6.5-9.1,9.1-4.6,2.6-10.1,4.1-16.5,4.5-7,.5-13-.5-18.1-2.8-5.1-2.3-8.5-5.5-10.3-9.4s-3-9.7-3.5-17.2l-.3-6.6,12-.8,6-.4,1.2,1.9,2.5-.2.9-2h1.6c0-.1.8,12.1.8,12.1.2,3.7.7,6.1,1.5,7.2.8,1,2,1.5,3.7,1.4,1.7-.1,3-.9,3.7-2.3.7-1.4,1-3.5.9-6.1-.4-5.9-1.5-9.7-3.2-11.4-1.8-1.7-6-4.5-12.8-8.3-6.8-3.9-11.2-6.7-13.5-8.5-2.2-1.8-4.2-4.4-5.8-7.7s-2.6-7.6-2.9-13c-.5-7.7,0-13.3,1.8-17,1.7-3.7,4.7-6.7,8.9-9,4.2-2.3,9.4-3.6,15.6-4.1,6.8-.5,12.6.3,17.5,2.1,4.9,1.9,8.2,4.4,10,7.6,1.8,3.2,2.9,8.8,3.4,16.8l-.2,3.8ZM1567.1,999l-3.3,2.8,3.6,3.1,2.8-1.8-2.4-2.7,2.1-.5-2.9-1ZM1573.8,997.3l-2.2,1.9,2.4,2.1,1.9-1.2-1.8-1.8,1.7-.3-1.9-.7ZM1579.3,999.9l-1.8,1.6,1.9,1.2,1.6-.4-.9-1.6.8-.2-1.6-.6ZM1597.1,954.8l-2.2,1.9,2.4,2.1,1.1-2.1-.8-.9,1.4-.3-1.9-.7ZM1615.1,1012.7l-2.2,1.9,2.4,2.1,1.9-1.2-1.6-1.8,1.4-.3-1.9-.7ZM1615.9,1017.6l-2.2,1.9,2.4,2.1,1.9-1.2-1.6-1.8,1.4-.3-1.9-.7ZM1619,1009l-1.7,1.3,1.8,1.4,1.4-.8-1.2-1.2,1.1-.3-1.4-.4Z"/>
    <path class="st0" d="M1727.2,921.3l3.4,49.9,1.7,25,.8,12.5.4,6.2-15.6,3.1,15-1.7,1,4.9-22.8,1.5-4.5-67.6-4.6,68.2-16.1,1.1-14-65.4,4.4,66-22.8,1.5-6.7-100.1,33.7-2.2c1.4,6,2.9,13,4.6,21.1l5.3,25.2,2.8-47.1,33.8-2.1ZM1653,930.9l-.5,1.2.8,2.3,2-1.2-2.2-1,2.6-1-2.7-.3ZM1657,928.7l-1.1,1.7,1,1.2.8-1.2h1.2c0,0,0-1.3,0-1.3l-1.9-.4ZM1726.9,1007.3l-1.9,2.5,1.7,1.8,3.9.4v-2.2c0,0-.2-1.4-.2-1.4l-3.5-1.1Z"/>
    <path class="st0" d="M1738,920.3l21.6-1.4,12.1-.8,3.8,1.2,3-1.7h2.7c0-.1,1.3,19.9,1.3,19.9l-17.4,1.2,1.3,19,16.2-1.1,1.3,19-16.2,1.1,1.4,21.5,9.7-.4,2.4,2.8,2.3-3,1.6,1,3.3-1.2,1.3,20-45.1,3-3.2-50.1-1.8-25.1-.6-6.3,1.8-2.2-1.8-2.4v-1.6s-.4-6.2-.4-6.2l-.2-3.2-.2-3.1ZM1742.6,938.8l-.2,2.4.2,2.8h3.9c0,.1,1.1-2.1,1.1-2.1l-1.4-2.2-3.6-.9ZM1759.9,971.4l-.2,1.4.2,1.5h3.1s.9-1.3.9-1.3l-1.1-1.2-2.9-.5ZM1764.2,978.8v.6c-.1,0,0,.7,0,.7h1.8l.6-.6-.7-.5-1.7-.2ZM1772.8,1004.6l-.2,1.4.2,1.5h3.1s.9-1.3.9-1.3l-1.1-1.2-2.9-.5ZM1774.4,1014.2l-.2,1.4.2,1.5h3.1s.9-1.3.9-1.3l-1.1-1.2-2.9-.5ZM1779.5,1006.1l-.3,1.9-.2,1.4,4.9,1.1,1.2-2.1-1.6-1.7-4-.7ZM1783,1012.6l-.2,1.4.2,1.5h3.1s.9-1.3.9-1.3l-1.1-1.2-2.9-.5Z"/>
  </g>
</svg>